HIERARCHY
ROOT Hips
{
	OFFSET 0.327225 85.456291 8.060652
	CHANNELS 6 Xposition Yposition Zposition Zrotation Yrotation Xrotation 
	JOINT Spine
	{
		OFFSET 0.000000 8.814246 -2.080107
		CHANNELS 3 Zrotation Yrotation Xrotation
		JOINT Spine1
		{
			OFFSET -0.000000 8.844141 0.000000
			CHANNELS 3 Zrotation Yrotation Xrotation
			JOINT Spine2
			{
				OFFSET 0.000000 11.682268 0.000000
				CHANNELS 3 Zrotation Yrotation Xrotation
				JOINT Spine3
				{
					OFFSET 0.000000 11.746700 0.000000
					CHANNELS 3 Zrotation Yrotation Xrotation
					JOINT Neck
					{
						OFFSET 0.000000 17.658264 0.000000
						CHANNELS 3 Zrotation Yrotation Xrotation
						JOINT Neck1
						{
							OFFSET 0.000000 5.101515 0.000000
							CHANNELS 3 Zrotation Yrotation Xrotation
							JOINT Head
							{
								OFFSET -0.000000 5.101515 -0.000000
								CHANNELS 3 Zrotation Yrotation Xrotation
								JOINT HeadEnd
								{
									OFFSET 0.000000 11.655085 0.000000
									CHANNELS 3 Zrotation Yrotation Xrotation
									End Site
									{
										OFFSET 0.000000 0.000000 0.000000
									}
								}
							}
						}
					}
					JOINT RightShoulder
					{
						OFFSET -2.625389 11.175210 -0.000000
						CHANNELS 3 Zrotation Yrotation Xrotation
						JOINT RightArm
						{
							OFFSET 0.000000 10.434715 0.000000
							CHANNELS 3 Zrotation Yrotation Xrotation
							JOINT RightForeArm
							{
								OFFSET -0.000000 29.628420 -0.000000
								CHANNELS 3 Zrotation Yrotation Xrotation
								JOINT RightHand
								{
									OFFSET 0.000000 22.857611 -0.000000
									CHANNELS 3 Zrotation Yrotation Xrotation
									JOINT RightHandThumb1
									{
										OFFSET -2.867323 3.959563 2.944291
										CHANNELS 3 Zrotation Yrotation Xrotation
										JOINT RightHandThumb2
										{
											OFFSET -0.000000 3.350399 0.000000
											CHANNELS 3 Zrotation Yrotation Xrotation
											JOINT RightHandThumb3
											{
												OFFSET -0.000000 3.756509 0.000000
												CHANNELS 3 Zrotation Yrotation Xrotation
												JOINT RightHandThumb4
												{
													OFFSET -0.000000 3.147345 0.000000
													CHANNELS 3 Zrotation Yrotation Xrotation
													End Site
													{
														OFFSET 0.000000 0.000000 0.000000
													}
												}
											}
										}
									}
									JOINT RightHandIndex1
									{
										OFFSET -0.086752 10.030893 2.345280
										CHANNELS 3 Zrotation Yrotation Xrotation
										JOINT RightHandIndex2
										{
											OFFSET -0.000000 4.061090 -0.000000
											CHANNELS 3 Zrotation Yrotation Xrotation
											JOINT RightHandIndex3
											{
												OFFSET 0.000000 3.248873 -0.000000
												CHANNELS 3 Zrotation Yrotation Xrotation
												JOINT RightHandIndex4
												{
													OFFSET 0.000000 2.639709 -0.000000
													CHANNELS 3 Zrotation Yrotation Xrotation
													End Site
													{
														OFFSET 0.000000 0.000000 0.000000
													}
												}
											}
										}
									}
									JOINT RightHandMiddle1
									{
										OFFSET 0.104102 9.502952 0.006768
										CHANNELS 3 Zrotation Yrotation Xrotation
										JOINT RightHandMiddle2
										{
											OFFSET -0.000000 4.568727 -0.000000
											CHANNELS 3 Zrotation Yrotation Xrotation
											JOINT RightHandMiddle3
											{
												OFFSET -0.000000 3.654981 -0.000000
												CHANNELS 3 Zrotation Yrotation Xrotation
												JOINT RightHandMiddle4
												{
													OFFSET -0.000000 2.741236 -0.000000
													CHANNELS 3 Zrotation Yrotation Xrotation
													End Site
													{
														OFFSET 0.000000 0.000000 0.000000
													}
												}
											}
										}
									}
									JOINT RightHandRing1
									{
										OFFSET 0.086752 8.921708 -2.267442
										CHANNELS 3 Zrotation Yrotation Xrotation
										JOINT RightHandRing2
										{
											OFFSET -0.000000 4.061090 0.000000
											CHANNELS 3 Zrotation Yrotation Xrotation
											JOINT RightHandRing3
											{
												OFFSET 0.000000 3.654981 -0.000000
												CHANNELS 3 Zrotation Yrotation Xrotation
												JOINT RightHandRing4
												{
													OFFSET 0.000000 2.741236 -0.000000
													CHANNELS 3 Zrotation Yrotation Xrotation
													End Site
													{
														OFFSET 0.000000 0.000000 0.000000
													}
												}
											}
										}
									}
									JOINT RightHandPinky1
									{
										OFFSET -0.173504 7.976997 -4.467199
										CHANNELS 3 Zrotation Yrotation Xrotation
										JOINT RightHandPinky2
										{
											OFFSET -0.000000 3.350399 0.000000
											CHANNELS 3 Zrotation Yrotation Xrotation
											JOINT RightHandPinky3
											{
												OFFSET 0.000000 2.842763 -0.000000
												CHANNELS 3 Zrotation Yrotation Xrotation
												JOINT RightHandPinky4
												{
													OFFSET -0.000000 2.639709 0.000000
													CHANNELS 3 Zrotation Yrotation Xrotation
													End Site
													{
														OFFSET 0.000000 0.000000 0.000000
													}
												}
											}
										}
									}
									JOINT RightForeArmEnd
									{
										OFFSET 0.000000 0.000000 0.000000
										CHANNELS 3 Zrotation Yrotation Xrotation
										End Site
										{
											OFFSET 0.000000 0.000000 0.000000
										}
									}
								}
								JOINT RightArmEnd
								{
									OFFSET 0.000000 0.000000 0.000000
									CHANNELS 3 Zrotation Yrotation Xrotation
									End Site
									{
										OFFSET 0.000000 0.000000 0.000000
									}
								}
							}
						}
					}
					JOINT LeftShoulder
					{
						OFFSET 2.625389 11.175210 0.000000
						CHANNELS 3 Zrotation Yrotation Xrotation
						JOINT LeftArm
						{
							OFFSET -0.000000 10.813635 0.000000
							CHANNELS 3 Zrotation Yrotation Xrotation
							JOINT LeftForeArm
							{
								OFFSET 0.000000 28.724781 -0.000000
								CHANNELS 3 Zrotation Yrotation Xrotation
								JOINT LeftHand
								{
									OFFSET 0.644384 25.716167 -0.328871
									CHANNELS 3 Zrotation Yrotation Xrotation
									JOINT LeftHandThumb1
									{
										OFFSET 2.867323 3.959563 2.944291
										CHANNELS 3 Zrotation Yrotation Xrotation
										JOINT LeftHandThumb2
										{
											OFFSET 0.000000 3.350399 -0.000000
											CHANNELS 3 Zrotation Yrotation Xrotation
											JOINT LeftHandThumb3
											{
												OFFSET 0.000000 3.756509 0.000000
												CHANNELS 3 Zrotation Yrotation Xrotation
												JOINT LeftHandThumb4
												{
													OFFSET 0.000000 3.100000 0.000000
													CHANNELS 3 Zrotation Yrotation Xrotation
													End Site
													{
														OFFSET 0.000000 0.000000 0.000000
													}
												}
											}
										}
									}
									JOINT LeftHandIndex1
									{
										OFFSET 0.086752 10.030893 2.345280
										CHANNELS 3 Zrotation Yrotation Xrotation
										JOINT LeftHandIndex2
										{
											OFFSET 0.000000 4.061090 0.000000
											CHANNELS 3 Zrotation Yrotation Xrotation
											JOINT LeftHandIndex3
											{
												OFFSET -0.000000 3.248873 -0.000000
												CHANNELS 3 Zrotation Yrotation Xrotation
												JOINT LeftHandIndex4
												{
													OFFSET -0.000000 2.639709 -0.000000
													CHANNELS 3 Zrotation Yrotation Xrotation
													End Site
													{
														OFFSET 0.000000 0.000000 0.000000
													}
												}
											}
										}
									}
									JOINT LeftHandMiddle1
									{
										OFFSET -0.104102 9.502952 0.006768
										CHANNELS 3 Zrotation Yrotation Xrotation
										JOINT LeftHandMiddle2
										{
											OFFSET 0.000000 4.568727 0.000000
											CHANNELS 3 Zrotation Yrotation Xrotation
											JOINT LeftHandMiddle3
											{
												OFFSET -0.000000 3.654981 -0.000000
												CHANNELS 3 Zrotation Yrotation Xrotation
												JOINT LeftHandMiddle4
												{
													OFFSET -0.000000 2.741236 -0.000000
													CHANNELS 3 Zrotation Yrotation Xrotation
													End Site
													{
														OFFSET 0.000000 0.000000 0.000000
													}
												}
											}
										}
									}
									JOINT LeftHandRing1
									{
										OFFSET -0.086752 8.921708 -2.267442
										CHANNELS 3 Zrotation Yrotation Xrotation
										JOINT LeftHandRing2
										{
											OFFSET 0.000000 4.061090 0.000000
											CHANNELS 3 Zrotation Yrotation Xrotation
											JOINT LeftHandRing3
											{
												OFFSET -0.000000 3.654981 -0.000000
												CHANNELS 3 Zrotation Yrotation Xrotation
												JOINT LeftHandRing4
												{
													OFFSET -0.000000 2.741236 -0.000000
													CHANNELS 3 Zrotation Yrotation Xrotation
													End Site
													{
														OFFSET 0.000000 0.000000 0.000000
													}
												}
											}
										}
									}
									JOINT LeftHandPinky1
									{
										OFFSET 0.173504 7.976997 -4.467199
										CHANNELS 3 Zrotation Yrotation Xrotation
										JOINT LeftHandPinky2
										{
											OFFSET 0.000000 3.350399 0.000000
											CHANNELS 3 Zrotation Yrotation Xrotation
											JOINT LeftHandPinky3
											{
												OFFSET 0.000000 2.842763 0.000000
												CHANNELS 3 Zrotation Yrotation Xrotation
												JOINT LeftHandPinky4
												{
													OFFSET 0.000000 2.639709 -0.000000
													CHANNELS 3 Zrotation Yrotation Xrotation
													End Site
													{
														OFFSET 0.000000 0.000000 0.000000
													}
												}
											}
										}
									}
									JOINT LeftForeArmEnd
									{
										OFFSET 0.000000 0.000000 0.000000
										CHANNELS 3 Zrotation Yrotation Xrotation
										End Site
										{
											OFFSET 0.000000 0.000000 0.000000
										}
									}
								}
								JOINT LeftArmEnd
								{
									OFFSET 0.000000 0.000000 0.000000
									CHANNELS 3 Zrotation Yrotation Xrotation
									End Site
									{
										OFFSET 0.000000 0.000000 0.000000
									}
								}
							}
						}
					}
				}
			}
		}
	}
	JOINT RightUpLeg
	{
		OFFSET -11.289943 0.000000 -0.000000
		CHANNELS 3 Zrotation Yrotation Xrotation
		JOINT RightLeg
		{
			OFFSET -0.000000 -38.200325 -0.000000
			CHANNELS 3 Zrotation Yrotation Xrotation
			JOINT RightFoot
			{
				OFFSET -0.000000 -39.900856 0.000000
				CHANNELS 3 Zrotation Yrotation Xrotation
				JOINT RightToeBase
				{
					OFFSET 0.000000 -0.000000 15.261641
					CHANNELS 3 Zrotation Yrotation Xrotation
					JOINT RightToeBaseEnd
					{
						OFFSET -0.000000 -0.000000 7.370709
						CHANNELS 3 Zrotation Yrotation Xrotation
						End Site
						{
							OFFSET 0.000000 0.000000 0.000000
						}
					}
				}
				JOINT RightLegEnd
				{
					OFFSET 0.000000 0.000000 0.000000
					CHANNELS 3 Zrotation Yrotation Xrotation
					End Site
					{
						OFFSET 0.000000 0.000000 0.000000
					}
				}
			}
			JOINT RightUpLegEnd
			{
				OFFSET 0.000000 0.000000 0.000000
				CHANNELS 3 Zrotation Yrotation Xrotation
				End Site
				{
					OFFSET 0.000000 0.000000 0.000000
				}
			}
		}
	}
	JOINT LeftUpLeg
	{
		OFFSET 11.315661 -0.000000 0.000000
		CHANNELS 3 Zrotation Yrotation Xrotation
		JOINT LeftLeg
		{
			OFFSET -0.000000 -38.200325 -0.000000
			CHANNELS 3 Zrotation Yrotation Xrotation
			JOINT LeftFoot
			{
				OFFSET -0.000000 -39.900856 0.000000
				CHANNELS 3 Zrotation Yrotation Xrotation
				JOINT LeftToeBase
				{
					OFFSET 0.000000 -0.000000 15.261641
					CHANNELS 3 Zrotation Yrotation Xrotation
					JOINT LeftToeBaseEnd
					{
						OFFSET -0.000000 0.000000 7.539996
						CHANNELS 3 Zrotation Yrotation Xrotation
						End Site
						{
							OFFSET 0.000000 0.000000 0.000000
						}
					}
				}
				JOINT LeftLegEnd
				{
					OFFSET 0.000000 0.000000 0.000000
					CHANNELS 3 Zrotation Yrotation Xrotation
					End Site
					{
						OFFSET 0.000000 0.000000 0.000000
					}
				}
			}
			JOINT LeftUpLegEnd
			{
				OFFSET 0.000000 0.000000 0.000000
				CHANNELS 3 Zrotation Yrotation Xrotation
				End Site
				{
					OFFSET 0.000000 0.000000 0.000000
				}
			}
		}
	}
}
MOTION
Frames: 4
Frame Time: 0.016667
-5.771616 87.263420 7.377579 -0.636945 1.279857 -22.444698 1.291826 -0.268433 9.979767 -0.267064 -0.092614 1.921901 0.653656 -2.391231 16.181662 -0.271170 -0.541751 9.277011 8.686610 -2.677726 13.593746 0.341241 0.068891 -0.182405 0.973658 0.391656 -21.189636 0.000000 0.000000 0.000000 92.163025 -0.635707 11.763865 62.623093 -7.470697 6.725962 -0.058046 21.699303 54.083397 39.582584 64.907555 30.579268 -5.318043 0.759531 46.945938 0.000021 -0.000015 11.832593 -0.000000 0.000046 8.783298 0.000017 0.000004 -0.000030 8.022212 1.293012 1.673349 5.914960 -0.004365 -0.207196 5.598218 0.103612 -0.206064 -0.000015 0.000007 -0.000014 6.749272 0.509477 -1.940930 5.539451 -0.046649 -0.103517 5.577384 0.028297 -0.073931 -0.000016 -0.000089 0.000010 8.707776 -0.655207 -6.482439 6.129627 0.086068 0.143914 6.123621 -0.048296 0.108930 -0.000005 -0.000419 -0.000004 10.992548 -1.786318 -12.129015 6.887410 0.099286 0.584228 6.840437 -0.189621 0.493992 -0.000142 0.000009 -0.000021 0.000000 0.000000 0.000000 0.000000 0.000000 0.000000 -89.247070 -0.116789 8.849319 -68.592316 8.693638 -0.452218 -0.091206 -13.535048 82.509987 -69.274727 -67.386620 49.638477 5.463676 -0.731114 46.884483 -0.000005 0.000026 11.803323 0.000076 -0.000005 8.669305 0.001091 0.000014 -0.001407 -7.425160 1.218098 1.702125 -5.132106 -0.048118 0.103885 -4.967669 0.028920 0.082475 0.000023 -0.001589 -0.000003 -8.463520 0.492730 -2.311768 -4.906177 -0.076558 0.051332 -4.996815 0.006373 0.042949 -0.001869 -0.000012 0.000138 -12.482137 -0.594406 -7.475991 -6.387678 0.134388 -0.103684 -6.310246 -0.020987 -0.045143 -0.001495 0.000006 -0.000006 -14.973017 -1.708956 -12.946726 -8.167770 0.248087 -0.303278 -8.291123 -0.091057 -0.232518 -0.000055 0.000009 -0.000044 0.000000 0.000000 0.000000 0.000000 0.000000 0.000000 -4.337488 -3.465970 20.860014 -0.222133 -1.047354 13.558404 0.820476 -7.082611 13.440836 -1.382730 1.303520 -16.840664 0.000000 0.000000 0.000000 0.000000 0.000000 0.000000 0.000000 0.000000 0.000000 4.239930 -0.144655 18.871164 0.237813 0.731799 19.151968 -0.003098 9.274232 10.051915 0.676003 -0.834738 -18.726376 0.000000 0.000000 0.000000 0.000000 0.000000 0.000000 0.000000 0.000000 0.000000 
-5.904202 87.263817 7.408225 -0.667415 1.243843 -22.446083 1.314456 -0.269930 9.975217 -0.264683 -0.094251 1.952898 0.693065 -2.434192 16.165720 -0.250424 -0.557767 9.293916 8.742360 -2.677763 13.565154 0.341738 0.088031 -0.212666 0.966120 0.394072 -21.179020 0.000000 0.000000 0.000000 92.133072 -0.617166 11.754304 62.833092 -7.387618 6.590295 -0.055867 21.688953 54.308384 39.684090 64.882339 30.680771 -5.294698 0.757951 46.940979 0.000021 -0.000015 11.792029 -0.000000 0.000046 8.750779 0.000017 0.000004 -0.000030 8.196134 1.295124 1.575563 6.031701 -0.005371 -0.205367 5.715496 0.102929 -0.204587 -0.000015 0.000007 -0.000014 6.917181 0.510040 -2.014417 5.652524 -0.047095 -0.102934 5.688378 0.028030 -0.073138 -0.000016 -0.000088 0.000010 8.868920 -0.655715 -6.524179 6.232695 0.086875 0.143190 6.227067 -0.047765 0.108344 -0.000005 -0.000393 -0.000004 11.149928 -1.788224 -12.147024 6.976338 0.101638 0.584171 6.928886 -0.188363 0.493532 -0.000154 0.000009 -0.000020 0.000000 0.000000 0.000000 0.000000 0.000000 0.000000 -89.228745 -0.127466 8.881237 -68.791962 8.827387 -0.476981 -0.084249 -13.494607 82.892677 -69.335587 -67.165642 49.704437 5.407925 -0.725344 46.870220 -0.000005 0.000026 11.701455 0.000076 -0.000004 8.591990 0.001138 0.000013 -0.001360 -7.775385 1.218876 1.467479 -5.317167 -0.050161 0.098460 -5.150334 0.027049 0.078070 0.000023 -0.001592 -0.000003 -8.752127 0.492840 -2.476168 -5.078614 -0.077368 0.049185 -5.168503 0.005733 0.041073 -0.001930 -0.000012 0.000140 -12.672418 -0.594761 -7.565353 -6.531835 0.135664 -0.101038 -6.453567 -0.020212 -0.043181 -0.001492 0.000006 -0.000006 -15.078929 -1.708926 -12.976081 -8.264247 0.251006 -0.295512 -8.388591 -0.088624 -0.226827 -0.000081 0.000009 -0.000044 0.000000 0.000000 0.000000 0.000000 0.000000 0.000000 -4.214733 -3.478308 20.894390 -0.218847 -1.035908 13.546923 0.748602 -7.163373 13.421252 -1.372449 1.296269 -16.838772 0.000000 0.000000 0.000000 0.000000 0.000000 0.000000 0.000000 0.000000 0.000000 4.351166 -0.175741 18.888823 0.240326 0.738870 19.173851 -0.078560 9.253281 10.042200 0.683193 -0.840558 -18.734205 0.000000 0.000000 0.000000 0.000000 0.000000 0.000000 0.000000 0.000000 0.000000 
-6.036815 87.264328 7.440007 -0.697388 1.218588 -22.443605 1.338852 -0.271848 9.969293 -0.257886 -0.097138 1.979907 0.728095 -2.475391 16.146656 -0.231881 -0.573360 9.309168 8.793008 -2.667133 13.534713 0.342486 0.113415 -0.244287 0.956417 0.396287 -21.171143 0.000000 0.000000 0.000000 92.102661 -0.598519 11.741273 63.064983 -7.292916 6.441402 -0.054889 21.678505 54.610504 39.877903 64.827805 30.876678 -5.267887 0.756279 46.935463 0.000021 -0.000015 11.746868 0.000000 0.000046 8.714813 0.000017 0.000005 -0.000030 8.398436 1.297201 1.484666 6.168453 -0.006320 -0.204157 5.853417 0.102324 -0.203545 -0.000015 0.000007 -0.000014 7.112095 0.510549 -2.082678 5.785749 -0.047521 -0.102571 5.819660 0.027780 -0.072499 -0.000016 -0.000086 0.000010 9.049979 -0.656262 -6.562013 6.354318 0.087637 0.142586 6.349729 -0.047293 0.107819 -0.000005 -0.000362 -0.000003 11.324296 -1.789883 -12.161149 7.080714 0.103842 0.584535 7.033481 -0.187251 0.493314 -0.000167 0.000009 -0.000020 0.000000 0.000000 0.000000 0.000000 0.000000 0.000000 -89.214928 -0.137323 8.911003 -69.002464 8.935728 -0.523923 -0.070988 -13.462344 83.339424 -69.474129 -66.911789 49.846241 5.351155 -0.719160 46.855221 -0.000005 0.000026 11.596147 0.000076 -0.000004 8.512490 0.001176 0.000013 -0.001310 -8.143379 1.219456 1.243524 -5.503520 -0.051906 0.093833 -5.334465 0.025487 0.074272 0.000024 -0.001590 -0.000003 -9.063907 0.492871 -2.632492 -5.254756 -0.078065 0.047344 -5.343056 0.005191 0.039446 -0.001995 -0.000012 0.000143 -12.891850 -0.595038 -7.651059 -6.684360 0.136791 -0.098777 -6.605082 -0.019551 -0.041483 -0.001487 0.000006 -0.000006 -15.213464 -1.708499 -13.005684 -8.370697 0.253532 -0.288820 -8.494990 -0.086518 -0.221847 -0.000111 0.000008 -0.000044 0.000000 0.000000 0.000000 0.000000 0.000000 0.000000 -4.091638 -3.493789 20.929733 -0.215532 -1.024339 13.533777 0.677438 -7.251253 13.401747 -1.362923 1.289184 -16.837944 0.000000 0.000000 0.000000 0.000000 0.000000 0.000000 0.000000 0.000000 0.000000 4.460941 -0.219171 18.904135 0.242908 0.745972 19.194584 -0.155170 9.222684 10.035132 0.689494 -0.846627 -18.743910 0.000000 0.000000 0.000000 0.000000 0.000000 0.000000 0.000000 0.000000 0.000000 
-6.169114 87.264992 7.472248 -0.726981 1.205173 -22.437824 1.365493 -0.274043 9.962114 -0.247601 -0.100453 2.002924 0.759248 -2.514567 16.124231 -0.215419 -0.588349 9.321239 8.837123 -2.645478 13.507334 0.343574 0.144249 -0.274834 0.944523 0.398092 -21.165779 0.000000 0.000000 0.000000 92.076645 -0.581218 11.724820 63.298691 -7.187541 6.299104 -0.052015 21.671316 54.928379 40.106461 64.749725 31.112951 -5.239446 0.754769 46.930054 0.000020 -0.000014 11.701308 0.000000 0.000045 8.678216 0.000017 0.000005 -0.000030 8.617188 1.299224 1.405071 6.320240 -0.007070 -0.203929 6.006871 0.101953 -0.203269 -0.000015 0.000007 -0.000014 7.320555 0.511036 -2.141986 5.934195 -0.047864 -0.102571 5.966585 0.027600 -0.072144 -0.000016 -0.000084 0.000009 9.236933 -0.656916 -6.592209 6.489882 0.088235 0.142249 6.486444 -0.046950 0.107457 -0.000005 -0.000327 -0.000003 11.500336 -1.791535 -12.168958 7.195953 0.105605 0.585575 7.149795 -0.186504 0.493509 -0.000180 0.000009 -0.000019 0.000000 0.000000 0.000000 0.000000 0.000000 0.000000 -89.210777 -0.145410 8.940996 -69.202911 9.028427 -0.576727 -0.052675 -13.439142 83.791374 -69.653351 -66.653183 50.028881 5.295444 -0.712711 46.840088 -0.000006 0.000026 11.491297 0.000076 -0.000003 8.433969 0.001202 0.000013 -0.001259 -8.516203 1.219812 1.038838 -5.687116 -0.053265 0.090207 -5.516346 0.024308 0.071151 0.000024 -0.001584 -0.000004 -9.386430 0.492821 -2.774326 -5.430459 -0.078609 0.045877 -5.516622 0.004779 0.038126 -0.002060 -0.000012 0.000145 -13.127678 -0.595206 -7.726808 -6.840133 0.137739 -0.096959 -6.760039 -0.019036 -0.040074 -0.001480 0.000006 -0.000006 -15.365341 -1.707710 -13.028025 -8.482279 0.255593 -0.283220 -8.605473 -0.084841 -0.217588 -0.000146 0.000008 -0.000044 0.000000 0.000000 0.000000 0.000000 0.000000 0.000000 -3.969409 -3.511941 20.965822 -0.212167 -1.012450 13.518060 0.605623 -7.344530 13.384446 -1.353806 1.281858 -16.838465 0.000000 0.000000 0.000000 0.000000 0.000000 0.000000 0.000000 0.000000 0.000000 4.569044 -0.274898 18.917019 0.245546 0.753314 19.213179 -0.233038 9.181729 10.030277 0.694978 -0.853221 -18.755014 0.000000 0.000000 0.000000 0.000000 0.000000 0.000000 0.000000 0.000000 0.000000 
